<?xml version="1.0" encoding="UTF-8"?>
<!-- Generated by Pixelmator Pro 3.1.1 -->
<svg width="400" height="400" viewBox="0 0 400 400" xmlns="http://www.w3.org/2000/svg" xmlns:xlink="http://www.w3.org/1999/xlink">
    <path id="Path" fill="#ffffff" fill-opacity="0.257391" fill-rule="evenodd" stroke="none" visibility="hidden" style="mix-blend-mode:exclusion" d="M 350 200 C 350 117.157288 282.842712 50 200 50 C 117.157288 50 50 117.157288 50 200 C 50 282.842712 117.157288 350 200 350 C 282.842712 350 350 282.842712 350 200 Z"/>
    <path id="Ellipse-copy" fill="none" stroke="#000000" stroke-width="3" stroke-linecap="round" stroke-linejoin="round" style="mix-blend-mode:exclusion" d="M 300 190 C 300 134.771545 255.22847 90 200 90 C 144.77153 90 100 134.771545 100 190 C 100 245.22847 144.77153 290 200 290 C 255.22847 290 300 245.22847 300 190 Z"/>
    <path id="Shape" fill="#000000" fill-rule="evenodd" stroke="none" d="M 231 90.5 C 231 73.103027 216.896973 59 199.5 59 C 182.103027 59 168 73.103027 168 90.5 C 168 107.896973 182.103027 122 199.5 122 C 216.896973 122 231 107.896973 231 90.5 Z"/>
</svg>
